# xmcd
#
# Track frame offsets: 
#        150
#        15602
#        55654
#        75831
#        95033
#        109960
#        131562
#        147314
#        189084
#        202886
#
# Disc length: 3237 seconds
#
# Revision: 0
# Processed by: cddbd v1.5.2PL0 Copyright (c) Steve Scherf et al.
# Submitted via: ExactAudioCopy v1.0b3
#
DISCID=7a0ca30a
DTITLE=Roy Buchanan  - 1977-06-15 - Shiba Ubinchokin Hall - Tokyo, Jap
DTITLE=an - disc 1
DYEAR=1977
DGENRE=Blues
TTITLE0=My Baby Says Shes Gonnna Leave Me
TTITLE1=Roys Blues
TTITLE2=Further On Up The Road
TTITLE3=Sweet Dreams
TTITLE4=Johnny B Goode
TTITLE5=Since Youve Been Gone
TTITLE6=Sweet Honeydew
TTITLE7=Down by The River
TTITLE8=Slow Down
TTITLE9=Hey jow Foxey Lady
EXTD=
EXTT0=
EXTT1=
EXTT2=
EXTT3=
EXTT4=
EXTT5=
EXTT6=
EXTT7=
EXTT8=
EXTT9=
PLAYORDER=
